<?xml version="1.0" encoding="UTF-8"?>
<svg width="654px" height="213px" viewBox="0 0 654 213" version="1.1" xmlns="http://www.w3.org/2000/svg" xmlns:xlink="http://www.w3.org/1999/xlink">
    <title>Pinpoint</title>
    <g id="页面-1" stroke="none" stroke-width="1" fill="none" fill-rule="evenodd">
        <g id="Pinpoint" transform="translate(0.1707, 0.4665)" fill="#EC0000" fill-rule="nonzero">
            <path d="M42.6195072,182.403826 C42.8798687,182.403826 43.0100495,182.534007 43.0100495,182.794368 C43.0100495,183.315091 42.8798687,184.161266 42.6195072,185.332893 C42.3591456,186.50452 41.578061,187.480876 40.2762532,188.261961 C28.03926,193.469192 18.1455208,195.617175 10.5950356,194.705909 C3.04455047,193.794644 -0.470330555,188.782684 0.0503925595,179.670029 C0.310754117,177.326775 1.0267484,174.202437 2.19837541,170.297013 C3.37000242,166.39159 4.93217176,162.095624 6.88488344,157.409116 C8.83759512,152.722608 11.0506684,147.710648 13.5241032,142.373236 C15.9975379,137.035824 18.5360631,131.763503 21.1396787,126.556272 C15.9324476,125.254464 11.2459395,123.497023 7.08015461,121.28395 C2.91436969,119.070877 0.831477231,115.751267 0.831477231,111.325121 C0.571115674,106.638613 1.6125619,102.537918 3.95581592,99.023037 C6.29906994,95.508156 9.42340862,92.6441789 13.328832,90.4311056 C17.2342553,88.2180324 21.6604018,86.6558631 26.6072714,85.7445976 C31.554141,84.8333322 36.6311914,84.7682418 41.8384225,85.5493264 C44.9627612,79.8213722 48.4125518,73.8330564 52.1877944,67.584379 C55.963037,61.3357016 58.7619237,56.6491936 60.5844546,53.5248549 C61.1051778,52.4834087 61.6259009,51.702324 62.146624,51.1816009 C62.4069855,50.9212393 62.5371663,50.6608778 62.5371663,50.4005162 C64.0993357,47.015816 65.0756915,44.021658 65.4662338,41.4180425 C65.8567762,38.8144269 65.7916858,36.4711729 65.2709627,34.3882804 C59.2826469,36.991896 53.7499638,40.1162347 48.6729134,43.7612965 C43.595863,47.4063583 39.1697165,51.2466913 35.394474,55.2822954 C31.6192314,59.3178995 28.5599831,63.3535037 26.2167291,67.3891078 C23.8734751,71.424712 22.5716673,75.0046834 22.3113057,78.1290221 C22.0509442,79.951553 21.4000403,81.3835415 20.358594,82.4249878 C18.7964247,83.2060724 17.4946169,83.3362532 16.4531707,82.8155301 C14.1099167,82.0344454 11.7015723,81.1882704 9.22813746,80.2770049 C6.75470266,79.3657395 4.6718102,77.9337509 2.97946008,75.9810392 C1.28710996,74.0283275 0.375844506,71.424712 0.245663727,68.1701925 C0.115482949,64.915673 1.22201957,60.5546169 3.56527358,55.0870242 C7.99142006,45.1932851 14.1099167,36.2108113 21.9207634,28.1396031 C28.4298023,21.3702026 37.3471856,15.1215252 48.6729134,9.39357092 C59.9986411,3.66561666 74.3836172,0.541277974 91.8278415,0.0205548598 C105.887366,-0.239806698 117.148003,1.97326654 125.609754,6.65977457 C134.071504,11.3462826 140.12491,17.269508 143.769972,24.4294509 C147.415034,31.5893937 148.781932,39.5955116 147.870667,48.4478045 C146.959401,57.3000975 144.030334,65.7618481 139.083464,73.8330564 C133.615871,82.9457109 126.71629,91.1470999 118.38472,98.4372235 C111.354958,104.946262 102.372485,111.064759 91.4372992,116.792713 C80.5021138,122.520668 67.2236744,126.29591 51.6019809,128.118441 C51.0812578,129.159887 50.8208962,129.940972 50.8208962,130.461695 C50.3001731,131.24278 49.9747212,132.023864 49.8445404,132.804949 C49.7143596,133.586034 49.3889077,134.367118 48.8681846,135.148203 C44.9627612,147.124835 42.8147784,157.083664 42.424236,165.024692 C42.0336937,172.965719 42.0987841,178.758764 42.6195072,182.403826 Z M78.9399444,30.0923147 C82.3246447,30.8733994 85.5791641,31.979936 88.7035028,33.4119246 C91.8278415,34.8439132 94.1710955,36.7966248 95.7332649,39.2700596 C97.2954342,41.7434944 97.8812477,44.8027427 97.4907054,48.4478045 C97.1001631,52.0928663 95.082361,56.388832 91.4372992,61.3357016 C90.6562145,62.1167863 90.0053106,62.9629613 89.4845875,63.8742268 C88.9638644,64.7854922 88.3129605,65.6316673 87.5318758,66.412752 C87.2715143,66.6731135 87.0762431,66.9334751 86.9460623,67.1938367 C86.8158815,67.4541982 86.4904296,67.7145598 85.9697065,67.9749213 C85.4489834,68.756006 84.5377179,70.0578138 83.2359101,71.8803447 C81.9341023,73.7028756 80.5021138,75.6555873 78.9399444,77.7384797 C77.3777751,79.8213722 75.7505154,81.969355 74.0581652,84.1824283 C72.3658151,86.3955015 70.9989169,88.4133036 69.9574707,90.2358345 C67.6142167,94.4016194 65.4011435,98.4372235 63.318251,102.342647 C61.2353585,106.24807 59.4128276,110.023313 57.8506583,113.668375 C61.4957201,112.626928 65.2058723,111.325121 68.9811149,109.762951 C72.7563574,108.200782 76.5966904,106.24807 80.5021138,103.904816 C88.3129605,99.2183082 94.8219994,94.5318002 100.029231,89.8452921 C105.236462,85.1587841 109.467337,80.5373665 112.721856,75.9810392 C115.976376,71.424712 118.31963,67.0636559 119.751619,62.897871 C121.183607,58.732086 122.159963,54.8266627 122.680686,51.1816009 C123.201409,47.7969006 122.810867,44.4772908 121.509059,41.2227713 C120.207251,37.9682518 117.863997,35.2344555 114.479297,33.0213823 C111.094597,30.808309 106.53827,29.3112301 100.810315,28.5301454 C95.082361,27.7490607 88.0525989,28.1396031 79.7210291,29.7017724 C79.4606675,29.7017724 79.200306,29.8319532 78.9399444,30.0923147 Z M26.9978137,114.058917 C28.2996215,111.19494 29.5363389,108.591324 30.7079659,106.24807 C31.8795929,103.904816 33.1163103,101.691743 34.4181181,99.6088505 C30.2523332,99.8692121 27.1279945,100.910658 25.0451021,102.733189 C22.9622096,104.55572 21.9207634,106.508432 21.9207634,108.591324 C21.9207634,111.19494 23.6131135,113.017471 26.9978137,114.058917 Z" id="形状"></path>
            <path d="M197.664815,37.9031615 C199.226984,40.7671386 198.64117,43.4358445 195.907374,45.9092793 C193.173578,48.3827141 189.658697,50.7910585 185.362731,53.1343126 C181.066765,55.4775666 176.7708,57.6906398 172.474834,59.7735323 C168.178868,61.8564247 165.510162,63.8091364 164.468716,65.6316673 C163.947993,66.1523904 163.42727,66.412752 162.906547,66.412752 C162.385824,66.412752 161.409468,66.3476616 159.977479,66.2174808 C158.545491,66.0873 156.78805,65.5014865 154.705158,64.4600403 C152.622265,63.4185941 151.060096,61.9866055 150.01865,60.1640746 C148.977203,58.6019053 148.326299,56.714284 148.065938,54.5012107 C147.805576,52.2881375 148.716842,49.35907 150.799734,45.7140082 C153.142988,41.5482233 156.592779,38.2286134 161.149106,35.7551786 C165.705433,33.2817438 170.391941,31.7195745 175.20863,31.0686706 C180.025319,30.4177667 184.516556,30.6781282 188.682341,31.8497552 C192.848126,33.0213823 195.842284,35.0391843 197.664815,37.9031615 Z M161.73492,73.8330564 C163.036727,74.614141 164.468716,76.1763104 166.030885,78.5195644 C167.593055,80.8628184 167.462874,83.5966148 165.640343,86.7209535 C164.338535,88.8038459 162.906547,91.4074615 161.344377,94.5318002 C159.782208,97.6561389 158.220039,101.040839 156.657869,104.685901 C155.616423,106.768793 154.705158,108.916776 153.924073,111.129849 C153.142988,113.342923 152.361904,115.490906 151.580819,117.573798 C148.977203,125.384645 147.675396,133.00022 147.675396,140.420525 C147.675396,147.840829 149.367746,153.764054 152.752446,158.190201 C153.273169,158.971286 153.728802,159.882551 154.119344,160.923997 C154.509886,161.965444 154.054254,162.746528 152.752446,163.267251 C151.190277,163.787974 149.302655,164.373788 147.089582,165.024692 C144.876509,165.675596 142.403074,166.066138 139.669278,166.196319 C136.935481,166.3265 134.006414,166.131228 130.882075,165.610505 C127.757736,165.089782 124.633398,163.918155 121.509059,162.095624 C120.207251,161.31454 119.426167,160.403274 119.165805,159.361828 C118.905443,158.320382 118.645082,157.539297 118.38472,157.018574 C117.863997,153.373512 117.929088,147.775739 118.579992,140.225253 C119.230895,132.674768 121.63924,123.301752 125.805025,112.106205 C130.231171,99.8692121 134.462047,90.1707441 138.497651,83.0108013 C142.533255,75.8508584 144.811418,72.0105255 145.332142,71.4898023 C146.633949,69.4069099 148.586661,68.6258252 151.190277,69.1465483 C153.793892,69.6672714 155.616423,70.1879946 156.657869,70.7087177 C157.178592,70.9690792 157.829496,71.2945312 158.610581,71.6850735 C159.391666,72.0756159 160.433112,72.7916101 161.73492,73.8330564 Z" id="形状"></path>
            <path d="M186.339087,160.923997 C179.830048,160.142913 174.687907,158.971286 170.912665,157.409116 C167.137422,155.846947 164.208354,154.089506 162.125462,152.136795 C160.04257,150.184083 158.740762,147.97101 158.220039,145.497575 C157.699316,143.02414 157.569135,140.355434 157.829496,137.491457 C158.870943,130.982418 160.10766,124.929012 161.539648,119.331239 C162.971637,113.733465 164.729078,108.396053 166.81197,103.319003 C168.894862,98.2419524 171.173026,93.164902 173.646461,88.0878516 C176.119896,83.0108013 178.918782,77.4781182 182.043121,71.4898023 C183.344929,69.4069099 185.362731,68.6258252 188.096527,69.1465483 C190.830324,69.6672714 192.587764,70.1879946 193.368849,70.7087177 C193.889572,70.9690792 194.605566,71.2945312 195.516832,71.6850735 C196.428097,72.0756159 197.534634,72.7916101 198.836442,73.8330564 C199.877888,74.614141 201.179696,76.1763104 202.741865,78.5195644 C204.304034,80.8628184 204.173854,83.5966148 202.351323,86.7209535 C201.049515,88.8038459 199.617526,91.4074615 198.055357,94.5318002 C196.493188,97.6561389 194.931018,101.040839 193.368849,104.685901 C192.848126,105.987709 192.327403,107.224426 191.80668,108.396053 C191.285956,109.56768 190.765233,110.804398 190.24451,112.106205 C191.025595,111.064759 192.652855,109.046957 195.126289,106.052799 C197.599724,103.058641 200.789153,99.7390313 204.694577,96.0939695 C208.6,92.4489077 213.026146,88.7387555 217.973016,84.9635129 C222.919886,81.1882704 228.257298,77.9988413 233.985252,75.3952257 C234.505975,74.8745026 235.156879,74.5490506 235.937964,74.4188699 C236.719048,74.2886891 237.369952,73.9632371 237.890675,73.442514 C239.973568,72.6614294 242.251731,72.1407062 244.725166,71.8803447 C247.198601,71.6199831 249.346584,72.5312486 251.169115,74.614141 C254.033092,77.4781182 255.009448,80.6675472 254.098182,84.1824283 C253.186917,87.6973093 252.08038,90.6263768 250.778572,92.9696308 C249.997488,94.7921617 249.151313,96.679783 248.240047,98.6324947 C247.328782,100.585206 246.352426,102.603008 245.31098,104.685901 C244.529895,106.768793 243.68372,108.916776 242.772454,111.129849 C241.861189,113.342923 241.015014,115.490906 240.233929,117.573798 C237.890675,125.384645 236.653958,133.00022 236.523777,140.420525 C236.393596,147.840829 238.151037,153.764054 241.796099,158.190201 C242.316822,158.971286 242.707364,159.882551 242.967726,160.923997 C243.228087,161.965444 242.707364,162.746528 241.405556,163.267251 C239.843387,163.787974 237.955766,164.373788 235.742692,165.024692 C233.529619,165.675596 231.056184,166.066138 228.322388,166.196319 C225.588592,166.3265 222.659524,166.131228 219.535185,165.610505 C216.410847,165.089782 213.286508,163.918155 210.162169,162.095624 C208.860362,161.31454 208.079277,160.403274 207.818915,159.361828 C207.558554,158.320382 207.298192,157.539297 207.037831,157.018574 C206.777469,153.894235 206.842559,149.012456 207.233102,142.373236 C207.623644,135.734017 209.381085,127.597718 212.505423,117.96434 C213.026146,116.141809 213.67705,114.189098 214.458135,112.106205 C215.23922,110.023313 216.280666,107.81024 217.582474,105.466986 L217.582474,104.685901 C217.061751,104.425539 216.671208,104.425539 216.410847,104.685901 C213.54687,106.768793 210.617802,109.177138 207.623644,111.910934 C204.629486,114.64473 201.96078,117.83416 199.617526,121.479221 C195.972464,126.686453 193.368849,132.804949 191.80668,139.834711 C191.285956,142.95905 190.895414,145.823027 190.635053,148.426643 C190.374691,151.030258 190.24451,153.113151 190.24451,154.67532 C190.24451,156.497851 190.114329,157.669478 189.853968,158.190201 C189.072883,159.492009 188.291799,160.403274 187.510714,160.923997 C186.989991,161.184359 186.599448,161.184359 186.339087,160.923997 Z" id="路径"></path>
            <path d="M296.472026,123.431933 C297.773833,124.473379 297.773833,126.165729 296.472026,128.508983 C295.170218,130.852237 293.608048,133.260582 291.785518,135.734017 C289.962987,138.207451 288.530998,140.485615 287.489552,142.568507 C286.448106,144.6514 286.838648,146.083389 288.661179,146.864473 C289.962987,147.385196 291.720427,146.34375 293.9335,143.740135 C296.146574,141.136519 298.489828,137.751819 300.963262,133.586034 C303.436697,129.420249 305.910132,124.733741 308.383567,119.52651 C310.857002,114.319279 312.939894,109.372409 314.632244,104.685901 C316.324594,99.9993929 317.366041,95.833608 317.756583,92.1885462 C318.147125,88.5434844 317.691493,86.2002303 316.389685,85.1587841 C314.046431,83.5966148 310.53155,84.3776994 305.845042,87.5020381 C301.158534,90.6263768 296.276754,94.9874329 291.199704,100.585206 C286.122654,106.18298 281.436146,112.626928 277.14018,119.917052 C272.844214,127.207176 270.045328,134.236938 268.74352,141.006338 C264.317373,157.148755 261.909029,170.687556 261.518487,181.622741 C261.127944,192.557927 261.193035,199.066965 261.713758,201.149858 C261.974119,202.191304 262.1043,203.493112 262.1043,205.055281 C262.364662,205.576004 262.364662,206.096727 262.1043,206.617451 C261.843938,207.138174 261.583577,207.658897 261.323215,208.17962 C258.459238,211.043597 255.269809,212.215224 251.754928,211.694501 C248.240047,211.173778 246.092064,210.653055 245.31098,210.132332 C243.228087,209.090885 241.665918,208.049439 240.624472,207.007993 C239.062302,205.706185 237.890675,204.534558 237.109591,203.493112 C236.328506,202.451666 235.677602,201.5404 235.156879,200.759316 C235.156879,200.498954 235.026698,200.368773 234.766336,200.368773 C234.245613,199.327327 233.985252,198.806604 233.985252,198.806604 C232.423082,194.640819 232.097631,188.782684 233.008896,181.232199 C233.920161,173.681714 235.482331,165.610505 237.695404,157.018574 C239.908477,148.426643 242.512093,139.769621 245.506251,131.047509 C248.500409,122.325396 251.429476,114.57964 254.293453,107.81024 C258.7196,96.8750542 262.690114,88.2180324 266.204995,81.8391743 C269.719876,75.4603161 271.737678,72.0105255 272.258401,71.4898023 C273.560209,69.4069099 275.51292,68.6258252 278.116536,69.1465483 C280.720151,69.6672714 282.542682,70.1879946 283.584128,70.7087177 C284.104852,70.9690792 284.755756,71.2945312 285.53684,71.6850735 C286.317925,72.0756159 287.359371,72.7916101 288.661179,73.8330564 C289.962987,74.614141 291.394975,76.1763104 292.957145,78.5195644 C294.519314,80.8628184 294.389133,83.5966148 292.566602,86.7209535 C292.045879,87.2416766 292.045879,87.0464054 292.566602,86.1351399 C293.087325,85.2238745 293.087325,85.4191457 292.566602,86.7209535 C294.389133,84.8984226 296.667297,83.0108013 299.401093,81.0580896 C302.134889,79.1053779 305.063957,77.4781182 308.188296,76.1763104 C311.312634,74.8745026 314.697335,74.2235987 318.342396,74.2235987 C321.987458,74.2235987 325.63252,75.1348642 329.277582,76.9573951 C332.40192,78.5195644 334.484813,81.3184511 335.526259,85.3540553 C336.567705,89.3896594 336.958248,93.9459867 336.697886,99.023037 C336.437525,104.100087 335.59135,109.372409 334.159361,114.840002 C332.727372,120.307594 331.230293,125.124283 329.668124,129.290068 C327.064509,135.278384 323.809989,140.811067 319.904566,145.888117 C315.999142,150.965168 311.052273,154.935681 305.063957,157.799659 C302.720703,159.101466 300.117087,160.012732 297.25311,160.533455 C294.909856,161.054178 292.306241,161.119268 289.442264,160.728726 C286.578286,160.338184 283.714309,159.101466 280.850332,157.018574 C277.986355,155.196043 276.033643,152.852789 274.992197,149.988812 C273.950751,147.124835 273.495118,144.195767 273.625299,141.201609 C273.75548,138.207451 274.471474,135.343474 275.773282,132.609678 C277.07509,129.875882 278.76744,127.467537 280.850332,125.384645 C282.412501,124.082837 284.690665,122.91121 287.684823,121.869764 C290.678981,120.828317 293.608048,121.349041 296.472026,123.431933 Z" id="路径"></path>
            <path d="M394.10761,65.6316673 C395.409417,66.1523904 396.515954,66.8032943 397.427219,67.584379 C398.338485,68.3654637 399.445022,69.4069099 400.746829,70.7087177 C402.308999,72.7916101 403.480626,75.3301353 404.26171,78.3242932 C405.042795,81.3184511 405.498428,84.3776994 405.628608,87.5020381 C405.758789,90.6263768 405.628608,93.6205347 405.238066,96.4845119 C404.847524,99.348489 404.391891,101.691743 403.871168,103.514274 C405.693699,103.774635 407.646411,103.904816 409.729303,103.904816 C411.551834,103.904816 413.699817,103.709545 416.173252,103.319003 C418.646686,102.92846 421.315392,102.082285 424.179369,100.780478 C426.0019,100.259754 427.303708,100.129574 428.084793,100.389935 C428.605516,100.910658 428.865877,102.147376 428.865877,104.100087 C428.865877,106.052799 428.214974,107.680059 426.913166,108.981867 C424.049189,111.325121 420.794669,113.147652 417.149607,114.449459 C413.244184,116.011629 408.948218,116.792713 404.26171,116.792713 C402.439179,116.792713 401.137372,116.662533 400.356287,116.402171 L399.575202,117.96434 C399.314841,118.485063 399.054479,119.070877 398.794118,119.721781 C398.533756,120.372685 398.273395,121.088679 398.013033,121.869764 C396.711225,124.994102 394.628333,128.964616 391.764356,133.781305 C388.900378,138.597994 385.320407,143.219411 381.024441,147.645558 C376.728476,152.071704 371.716516,155.716766 365.988561,158.580743 C360.260607,161.44472 353.751568,162.486167 346.461445,161.705082 C339.692044,160.663636 335.070626,157.474207 332.597192,152.136795 C330.123757,146.799383 329.212491,140.550705 329.863395,133.390763 C330.514299,126.23082 332.33683,118.745425 335.330988,110.934578 C338.325146,103.123732 342.035298,96.2241503 346.461445,90.2358345 C348.023614,88.152942 349.715964,86.0700496 351.538495,83.9871571 C353.361026,81.9042646 355.313738,79.8213722 357.39663,77.7384797 C358.958799,76.4366719 360.976601,75.0697738 363.450036,73.6377852 C365.923471,72.2057966 368.071454,72.4010678 369.893985,74.2235987 C370.935431,74.7443218 371.521244,75.3301353 371.651425,75.9810392 C371.781606,76.6319431 371.846696,77.2177566 371.846696,77.7384797 C374.971035,69.6672714 379.787724,65.3713058 386.296763,64.8505826 L389.030559,64.8505826 C391.113452,64.8505826 392.805802,65.1109442 394.10761,65.6316673 Z M380.438628,115.621086 C381.219712,114.840002 381.610255,114.319279 381.610255,114.058917 C380.048085,113.277832 378.616097,112.236386 377.314289,110.934578 C376.012481,109.893132 374.775764,108.526234 373.604137,106.833884 C372.43251,105.141534 371.456154,102.993551 370.675069,100.389935 C370.414708,99.0881274 370.154346,97.6561389 369.893985,96.0939695 C369.633623,94.5318002 369.503442,92.83945 369.503442,91.0169191 C369.243081,90.2358345 369.373262,89.0642075 369.893985,87.5020381 C369.893985,86.2002303 370.024166,85.0286033 370.284527,83.9871571 C370.544889,82.9457109 370.80525,81.7740839 371.065612,80.4722761 C370.544889,81.7740839 369.373262,83.466434 367.550731,85.5493264 C366.769646,87.1114958 365.858381,88.5434844 364.816934,89.8452921 C364.03585,91.1470999 363.124584,92.5790885 362.083138,94.1412578 C361.041692,95.7034272 360.130426,97.2655965 359.349342,98.8277659 C358.307895,100.910658 357.266449,103.384093 356.225003,106.24807 C355.183557,109.112047 354.142111,112.366567 353.100664,116.011629 C351.798857,120.177414 351.017772,124.408289 350.75741,128.704255 C350.497049,133.00022 352.189399,135.538745 355.834461,136.31983 C358.177715,136.840553 360.78133,136.059469 363.645307,133.976576 C366.509285,131.893684 368.982719,129.68061 371.065612,127.337356 C373.669227,124.994102 376.793566,121.088679 380.438628,115.621086 Z M389.030559,97.6561389 C390.85309,92.9696308 391.503994,88.4133036 390.983271,83.9871571 C390.462548,79.5610106 389.16074,77.4781182 387.077848,77.7384797 C384.994955,77.9988413 383.628057,79.5610106 382.977153,82.4249878 C382.326249,85.2889649 382.261159,88.0227612 382.781882,90.6263768 C383.042243,92.7092693 384.21387,94.5318002 386.296763,96.0939695 C387.338209,96.8750542 388.249475,97.3957773 389.030559,97.6561389 Z" id="形状"></path>
            <path d="M485.103974,37.9031615 C486.666143,40.7671386 486.08033,43.4358445 483.346533,45.9092793 C480.612737,48.3827141 477.097856,50.7910585 472.80189,53.1343126 C468.505925,55.4775666 464.209959,57.6906398 459.913993,59.7735323 C455.618028,61.8564247 452.949322,63.8091364 451.907875,65.6316673 C451.387152,66.1523904 450.866429,66.412752 450.345706,66.412752 C449.824983,66.412752 448.848627,66.3476616 447.416638,66.2174808 C445.98465,66.0873 444.227209,65.5014865 442.144317,64.4600403 C440.061424,63.4185941 438.499255,61.9866055 437.457809,60.1640746 C436.416363,58.6019053 435.765459,56.714284 435.505097,54.5012107 C435.244736,52.2881375 436.156001,49.35907 438.238894,45.7140082 C440.582148,41.5482233 444.031938,38.2286134 448.588265,35.7551786 C453.144593,33.2817438 457.831101,31.7195745 462.64779,31.0686706 C467.464478,30.4177667 471.955715,30.6781282 476.1215,31.8497552 C480.287285,33.0213823 483.281443,35.0391843 485.103974,37.9031615 Z M449.174079,73.8330564 C450.475887,74.614141 451.907875,76.1763104 453.470045,78.5195644 C455.032214,80.8628184 454.902033,83.5966148 453.079502,86.7209535 C451.777695,88.8038459 450.345706,91.4074615 448.783537,94.5318002 C447.221367,97.6561389 445.659198,101.040839 444.097029,104.685901 C443.055582,106.768793 442.144317,108.916776 441.363232,111.129849 C440.582148,113.342923 439.801063,115.490906 439.019978,117.573798 C436.416363,125.384645 435.114555,133.00022 435.114555,140.420525 C435.114555,147.840829 436.806905,153.764054 440.191605,158.190201 C440.712328,158.971286 441.167961,159.882551 441.558503,160.923997 C441.949046,161.965444 441.493413,162.746528 440.191605,163.267251 C438.629436,163.787974 436.741815,164.373788 434.528741,165.024692 C432.315668,165.675596 429.842233,166.066138 427.108437,166.196319 C424.374641,166.3265 421.445573,166.131228 418.321234,165.610505 C415.196896,165.089782 412.072557,163.918155 408.948218,162.095624 C407.646411,161.31454 406.865326,160.403274 406.604964,159.361828 C406.344603,158.320382 406.084241,157.539297 405.82388,157.018574 C405.303157,153.373512 405.368247,147.775739 406.019151,140.225253 C406.670055,132.674768 409.078399,123.301752 413.244184,112.106205 C417.670331,99.8692121 421.901206,90.1707441 425.93681,83.0108013 C429.972414,75.8508584 432.250578,72.0105255 432.771301,71.4898023 C434.073109,69.4069099 436.02582,68.6258252 438.629436,69.1465483 C441.233051,69.6672714 443.055582,70.1879946 444.097029,70.7087177 C444.617752,70.9690792 445.268656,71.2945312 446.04974,71.6850735 C446.830825,72.0756159 447.872271,72.7916101 449.174079,73.8330564 Z" id="形状"></path>
            <path d="M473.778246,160.923997 C467.269207,160.142913 462.127066,158.971286 458.351824,157.409116 C454.576581,155.846947 451.647514,154.089506 449.564621,152.136795 C447.481729,150.184083 446.179921,147.97101 445.659198,145.497575 C445.138475,143.02414 445.008294,140.355434 445.268656,137.491457 C446.310102,130.982418 447.546819,124.929012 448.978808,119.331239 C450.410796,113.733465 452.168237,108.396053 454.251129,103.319003 C456.334022,98.2419524 458.612185,93.164902 461.08562,88.0878516 C463.559055,83.0108013 466.357942,77.4781182 469.48228,71.4898023 C470.784088,69.4069099 472.80189,68.6258252 475.535687,69.1465483 C478.269483,69.6672714 480.026924,70.1879946 480.808008,70.7087177 C481.328731,70.9690792 482.044726,71.2945312 482.955991,71.6850735 C483.867256,72.0756159 484.973793,72.7916101 486.275601,73.8330564 C487.317047,74.614141 488.618855,76.1763104 490.181024,78.5195644 C491.743194,80.8628184 491.613013,83.5966148 489.790482,86.7209535 C488.488674,88.8038459 487.056686,91.4074615 485.494516,94.5318002 C483.932347,97.6561389 482.370178,101.040839 480.808008,104.685901 C480.287285,105.987709 479.766562,107.224426 479.245839,108.396053 C478.725116,109.56768 478.204393,110.804398 477.683669,112.106205 C478.464754,111.064759 480.092014,109.046957 482.565449,106.052799 C485.038883,103.058641 488.228313,99.7390313 492.133736,96.0939695 C496.039159,92.4489077 500.465306,88.7387555 505.412175,84.9635129 C510.359045,81.1882704 515.696457,77.9988413 521.424411,75.3952257 C521.945134,74.8745026 522.596038,74.5490506 523.377123,74.4188699 C524.158207,74.2886891 524.809111,73.9632371 525.329834,73.442514 C527.412727,72.6614294 529.690891,72.1407062 532.164325,71.8803447 C534.63776,71.6199831 536.785743,72.5312486 538.608274,74.614141 C541.472251,77.4781182 542.448607,80.6675472 541.537341,84.1824283 C540.626076,87.6973093 539.519539,90.6263768 538.217732,92.9696308 C537.436647,94.7921617 536.590472,96.679783 535.679206,98.6324947 C534.767941,100.585206 533.791585,102.603008 532.750139,104.685901 C531.969054,106.768793 531.122879,108.916776 530.211614,111.129849 C529.300348,113.342923 528.454173,115.490906 527.673088,117.573798 C525.329834,125.384645 524.093117,133.00022 523.962936,140.420525 C523.832756,147.840829 525.590196,153.764054 529.235258,158.190201 C529.755981,158.971286 530.146523,159.882551 530.406885,160.923997 C530.667246,161.965444 530.146523,162.746528 528.844716,163.267251 C527.282546,163.787974 525.394925,164.373788 523.181852,165.024692 C520.968778,165.675596 518.495344,166.066138 515.761547,166.196319 C513.027751,166.3265 510.098683,166.131228 506.974345,165.610505 C503.850006,165.089782 500.725667,163.918155 497.601329,162.095624 C496.299521,161.31454 495.518436,160.403274 495.258075,159.361828 C494.997713,158.320382 494.737351,157.539297 494.47699,157.018574 C494.216628,153.894235 494.281719,149.012456 494.672261,142.373236 C495.062803,135.734017 496.820244,127.597718 499.944583,117.96434 C500.465306,116.141809 501.11621,114.189098 501.897294,112.106205 C502.678379,110.023313 503.719825,107.81024 505.021633,105.466986 L505.021633,104.685901 C504.50091,104.425539 504.110368,104.425539 503.850006,104.685901 C500.986029,106.768793 498.056961,109.177138 495.062803,111.910934 C492.068646,114.64473 489.39994,117.83416 487.056686,121.479221 C483.411624,126.686453 480.808008,132.804949 479.245839,139.834711 C478.725116,142.95905 478.334573,145.823027 478.074212,148.426643 C477.81385,151.030258 477.683669,153.113151 477.683669,154.67532 C477.683669,156.497851 477.553489,157.669478 477.293127,158.190201 C476.512042,159.492009 475.730958,160.403274 474.949873,160.923997 C474.42915,161.184359 474.038608,161.184359 473.778246,160.923997 Z" id="路径"></path>
            <path d="M605.000471,36.7315344 C602.136494,40.6369578 599.012155,45.3234658 595.627455,50.7910585 C592.242755,56.2586512 588.792964,62.2469671 585.278083,68.756006 C581.763202,75.2650449 578.378502,82.2297166 575.123982,89.650021 C571.869463,97.0703254 568.940395,104.685901 566.33678,112.496748 C566.076418,113.017471 565.946237,113.342923 565.946237,113.473103 C565.946237,113.603284 565.816057,113.928736 565.555695,114.449459 C564.77461,116.532352 563.407712,121.023589 561.455001,127.92317 C559.502289,134.822751 558.525933,141.657242 558.525933,148.426643 C558.525933,151.29062 558.981566,153.764054 559.892831,155.846947 C560.804097,157.929839 561.259729,159.882551 561.259729,161.705082 C561.259729,163.267251 560.673916,164.243607 559.502289,164.634149 C558.330662,165.024692 557.354306,165.219963 556.573221,165.219963 C555.271414,164.959601 553.383792,164.569059 550.910357,164.048336 C548.436923,163.527613 545.963488,162.421076 543.490053,160.728726 C541.016618,159.036376 538.868635,156.693122 537.046105,153.698964 C535.223574,150.704806 534.312308,146.604112 534.312308,141.39688 C534.312308,136.189649 534.963212,130.982418 536.26502,125.775187 C537.566828,120.567956 538.868635,116.141809 540.170443,112.496748 C540.430805,111.455301 541.602432,108.135692 543.685324,102.537918 C545.768217,96.9401446 548.241652,90.3660153 551.105629,82.8155301 C553.969606,75.2650449 557.224125,67.1938367 560.869187,58.6019053 C564.514249,50.0099739 568.289491,42.0689464 572.194915,34.7788228 C564.64443,34.7788228 557.093944,35.6249978 549.543459,37.3173479 C541.992974,39.0096981 534.182127,40.3765962 526.110919,41.4180425 C518.300072,42.1991271 511.791033,42.1340368 506.583802,41.2227713 C501.376571,40.3115059 497.275877,38.8144269 494.281719,36.7315344 C491.287561,34.648642 489.139578,32.2402976 487.83777,29.5065012 C486.535962,26.7727049 485.885059,23.9738181 485.885059,21.109841 C485.885059,19.5476717 486.340691,16.9440561 487.251957,13.2989943 C488.163222,9.65393248 489.790482,7.83140158 492.133736,7.83140158 C492.914821,7.83140158 494.281719,8.48230547 496.23443,9.78411326 C498.187142,11.085921 501.1813,12.583 505.216904,14.2753501 C509.252508,15.9677002 514.655011,17.5298696 521.424411,18.9618582 C528.193812,20.3938467 536.785743,21.2400218 547.200205,21.5003833 C552.667798,21.7607449 556.182679,21.8909257 557.744848,21.8909257 C559.307018,21.8909257 560.543735,21.8258353 561.455001,21.6956545 C562.366266,21.5654737 563.863345,21.5003833 565.946237,21.5003833 C568.02913,21.5003833 572.455276,21.6305641 579.224677,21.8909257 C582.609377,16.9440561 585.603535,13.2989943 588.207151,10.9557403 C590.810766,8.61248625 595.236913,7.44085924 601.48559,7.44085924 C600.964867,7.44085924 601.48559,7.44085924 603.047759,7.44085924 C604.609929,7.44085924 606.49755,7.83140158 608.710623,8.61248625 C610.923696,9.39357092 612.941499,10.6953787 614.764029,12.5179096 C616.58656,14.3404405 617.628007,16.9440561 617.888368,20.3287563 C617.888368,21.3702026 617.107283,22.6720103 615.545114,24.2341797 C618.14873,24.2341797 621.59852,24.4945412 625.894486,25.0152644 C630.190452,25.5359875 634.356237,26.5123433 638.391841,27.9443319 C642.427445,29.3763204 645.942326,31.3290321 648.936484,33.8024669 C651.930642,36.2759017 653.427721,39.4653308 653.427721,43.3707542 C653.427721,47.7969006 651.995732,50.7259682 649.131755,52.1579567 C646.267778,53.5899453 643.924524,54.5663011 642.101993,55.0870242 C640.800185,55.0870242 640.0191,54.5663011 639.758739,53.5248549 C639.498377,50.9212393 638.131479,48.5128949 635.658044,46.2998217 C633.18461,44.0867484 630.190452,42.2642175 626.675571,40.832229 C623.16069,39.4002404 619.450537,38.2937038 615.545114,37.5126191 C611.639691,36.7315344 608.12481,36.4711729 605.000471,36.7315344 Z" id="路径"></path>
        </g>
    </g>
</svg>