<?xml version="1.0" encoding="UTF-8"?>
<svg width="172" height="219" viewBox="-12 -12 172 219" version="1.1" xmlns="http://www.w3.org/2000/svg">
    <title>Pinpoint Icon</title>
    <g transform="translate(0.1707, 0.4665)" fill="#EC0000" fill-rule="nonzero">
        <path d="M42.6195072,182.403826 C42.8798687,182.403826 43.0100495,182.534007 43.0100495,182.794368 C43.0100495,183.315091 42.8798687,184.161266 42.6195072,185.332893 C42.3591456,186.50452 41.578061,187.480876 40.2762532,188.261961 C28.03926,193.469192 18.1455208,195.617175 10.5950356,194.705909 C3.04455047,193.794644 -0.470330555,188.782684 0.0503925595,179.670029 C0.310754117,177.326775 1.0267484,174.202437 2.19837541,170.297013 C3.37000242,166.39159 4.93217176,162.095624 6.88488344,157.409116 C8.83759512,152.722608 11.0506684,147.710648 13.5241032,142.373236 C15.9975379,137.035824 18.5360631,131.763503 21.1396787,126.556272 C15.9324476,125.254464 11.2459395,123.497023 7.08015461,121.28395 C2.91436969,119.070877 0.831477231,115.751267 0.831477231,111.325121 C0.571115674,106.638613 1.6125619,102.537918 3.95581592,99.023037 C6.29906994,95.508156 9.42340862,92.6441789 13.328832,90.4311056 C17.2342553,88.2180324 21.6604018,86.6558631 26.6072714,85.7445976 C31.554141,84.8333322 36.6311914,84.7682418 41.8384225,85.5493264 C44.9627612,79.8213722 48.4125518,73.8330564 52.1877944,67.584379 C55.963037,61.3357016 58.7619237,56.6491936 60.5844546,53.5248549 C61.1051778,52.4834087 61.6259009,51.702324 62.146624,51.1816009 C62.4069855,50.9212393 62.5371663,50.6608778 62.5371663,50.4005162 C64.0993357,47.015816 65.0756915,44.021658 65.4662338,41.4180425 C65.8567762,38.8144269 65.7916858,36.4711729 65.2709627,34.3882804 C59.2826469,36.991896 53.7499638,40.1162347 48.6729134,43.7612965 C43.595863,47.4063583 39.1697165,51.2466913 35.394474,55.2822954 C31.6192314,59.3178995 28.5599831,63.3535037 26.2167291,67.3891078 C23.8734751,71.424712 22.5716673,75.0046834 22.3113057,78.1290221 C22.0509442,79.951553 21.4000403,81.3835415 20.358594,82.4249878 C18.7964247,83.2060724 17.4946169,83.3362532 16.4531707,82.8155301 C14.1099167,82.0344454 11.7015723,81.1882704 9.22813746,80.2770049 C6.75470266,79.3657395 4.6718102,77.9337509 2.97946008,75.9810392 C1.28710996,74.0283275 0.375844506,71.424712 0.245663727,68.1701925 C0.115482949,64.915673 1.22201957,60.5546169 3.56527358,55.0870242 C7.99142006,45.1932851 14.1099167,36.2108113 21.9207634,28.1396031 C28.4298023,21.3702026 37.3471856,15.1215252 48.6729134,9.39357092 C59.9986411,3.66561666 74.3836172,0.541277974 91.8278415,0.0205548598 C105.887366,-0.239806698 117.148003,1.97326654 125.609754,6.65977457 C134.071504,11.3462826 140.12491,17.269508 143.769972,24.4294509 C147.415034,31.5893937 148.781932,39.5955116 147.870667,48.4478045 C146.959401,57.3000975 144.030334,65.7618481 139.083464,73.8330564 C133.615871,82.9457109 126.71629,91.1470999 118.38472,98.4372235 C111.354958,104.946262 102.372485,111.064759 91.4372992,116.792713 C80.5021138,122.520668 67.2236744,126.29591 51.6019809,128.118441 C51.0812578,129.159887 50.8208962,129.940972 50.8208962,130.461695 C50.3001731,131.24278 49.9747212,132.023864 49.8445404,132.804949 C49.7143596,133.586034 49.3889077,134.367118 48.8681846,135.148203 C44.9627612,147.124835 42.8147784,157.083664 42.424236,165.024692 C42.0336937,172.965719 42.0987841,178.758764 42.6195072,182.403826 Z M78.9399444,30.0923147 C82.3246447,30.8733994 85.5791641,31.979936 88.7035028,33.4119246 C91.8278415,34.8439132 94.1710955,36.7966248 95.7332649,39.2700596 C97.2954342,41.7434944 97.8812477,44.8027427 97.4907054,48.4478045 C97.1001631,52.0928663 95.082361,56.388832 91.4372992,61.3357016 C90.6562145,62.1167863 90.0053106,62.9629613 89.4845875,63.8742268 C88.9638644,64.7854922 88.3129605,65.6316673 87.5318758,66.412752 C87.2715143,66.6731135 87.0762431,66.9334751 86.9460623,67.1938367 C86.8158815,67.4541982 86.4904296,67.7145598 85.9697065,67.9749213 C85.4489834,68.756006 84.5377179,70.0578138 83.2359101,71.8803447 C81.9341023,73.7028756 80.5021138,75.6555873 78.9399444,77.7384797 C77.3777751,79.8213722 75.7505154,81.969355 74.0581652,84.1824283 C72.3658151,86.3955015 70.9989169,88.4133036 69.9574707,90.2358345 C67.6142167,94.4016194 65.4011435,98.4372235 63.318251,102.342647 C61.2353585,106.24807 59.4128276,110.023313 57.8506583,113.668375 C61.4957201,112.626928 65.2058723,111.325121 68.9811149,109.762951 C72.7563574,108.200782 76.5966904,106.24807 80.5021138,103.904816 C88.3129605,99.2183082 94.8219994,94.5318002 100.029231,89.8452921 C105.236462,85.1587841 109.467337,80.5373665 112.721856,75.9810392 C115.976376,71.424712 118.31963,67.0636559 119.751619,62.897871 C121.183607,58.732086 122.159963,54.8266627 122.680686,51.1816009 C123.201409,47.7969006 122.810867,44.4772908 121.509059,41.2227713 C120.207251,37.9682518 117.863997,35.2344555 114.479297,33.0213823 C111.094597,30.808309 106.53827,29.3112301 100.810315,28.5301454 C95.082361,27.7490607 88.0525989,28.1396031 79.7210291,29.7017724 C79.4606675,29.7017724 79.200306,29.8319532 78.9399444,30.0923147 Z M26.9978137,114.058917 C28.2996215,111.19494 29.5363389,108.591324 30.7079659,106.24807 C31.8795929,103.904816 33.1163103,101.691743 34.4181181,99.6088505 C30.2523332,99.8692121 27.1279945,100.910658 25.0451021,102.733189 C22.9622096,104.55572 21.9207634,106.508432 21.9207634,108.591324 C21.9207634,111.19494 23.6131135,113.017471 26.9978137,114.058917 Z"/>
    </g>
</svg>
